<svg width="53" height="39" viewBox="0 0 53 39" fill="none" xmlns="http://www.w3.org/2000/svg">
<path d="M45.2765 0.495972C49.8418 0.495972 52.1245 3.11997 52.1245 8.36797V38H46.6845V8.43197C46.6845 6.25597 45.9805 5.16797 44.5725 5.16797C43.8898 5.16797 43.3565 5.33864 42.9725 5.67997C42.6312 5.97864 42.3325 6.44797 42.0765 7.08797L30.3005 38H24.6045V13.232C23.9645 13.4453 23.3458 13.552 22.7485 13.552C20.8712 13.552 19.3138 12.9546 18.0765 11.76C16.8818 10.5226 16.2845 8.92264 16.2845 6.95997C16.2845 5.08264 16.9245 3.54664 18.2045 2.35197C19.4845 1.11464 21.1058 0.495972 23.0685 0.495972C25.1165 0.495972 26.7805 1.13597 28.0605 2.41597C29.3832 3.65331 30.0445 5.27464 30.0445 7.27997V24.048C30.0445 25.7546 29.8738 27.9306 29.5325 30.576L31.3245 23.792L37.7885 6.25597C39.1965 2.41597 41.6925 0.495972 45.2765 0.495972ZM19.8045 7.02397C19.8045 7.87731 20.0818 8.60264 20.6365 9.19997C21.2338 9.75464 21.9592 10.032 22.8125 10.032C23.7085 10.032 24.4338 9.75464 24.9885 9.19997C25.5432 8.60264 25.8205 7.87731 25.8205 7.02397C25.8205 6.17064 25.5432 5.46664 24.9885 4.91197C24.4338 4.31464 23.7085 4.01597 22.8125 4.01597C21.9592 4.01597 21.2338 4.31464 20.6365 4.91197C20.0818 5.46664 19.8045 6.17064 19.8045 7.02397Z" fill="black"/>
<path d="M7.22401 25.584C9.14401 25.584 10.7013 26.2027 11.896 27.44C13.0907 28.6773 13.688 30.256 13.688 32.176C13.688 34.0533 13.048 35.6107 11.768 36.848C10.5307 38.0427 8.90934 38.64 6.904 38.64C4.856 38.64 3.192 38.0213 1.912 36.784C0.632004 35.504 -0.00799561 33.8613 -0.00799561 31.856V1.13599H5.368V25.904C6.008 25.6907 6.62667 25.584 7.22401 25.584ZM7.16001 35.12C8.05601 35.12 8.78134 34.8427 9.336 34.288C9.89067 33.6907 10.168 32.9653 10.168 32.112C10.168 31.2587 9.89067 30.5547 9.336 30C8.78134 29.4027 8.05601 29.104 7.16001 29.104C6.26401 29.104 5.53867 29.4027 4.984 30C4.42934 30.5547 4.152 31.2587 4.152 32.112C4.152 32.9653 4.42934 33.6907 4.984 34.288C5.53867 34.8427 6.26401 35.12 7.16001 35.12Z" fill="black"/>
</svg>
