<svg width="77" height="55" viewBox="0 0 77 55" fill="none" xmlns="http://www.w3.org/2000/svg">
<path d="M57.2436 0.878334C57.676 -0.29278 59.324 -0.292777 59.7564 0.878337L60.6166 3.20831C60.9586 4.13473 62.1437 4.38792 62.8311 3.68141L64.5598 1.90453C65.4287 1.01141 66.9342 1.68514 66.8553 2.93176L66.6982 5.41195C66.6358 6.39809 67.616 7.11389 68.5298 6.74945L70.8281 5.8329C71.9833 5.37221 73.0861 6.60318 72.5095 7.70974L71.3623 9.9113C70.9062 10.7867 71.512 11.8413 72.4943 11.8819L74.9648 11.9842C76.2066 12.0356 76.7158 13.6109 75.7413 14.3861L73.8024 15.9284C73.0315 16.5416 73.1581 17.7527 74.0391 18.1914L76.2546 19.2948C77.3682 19.8494 77.1959 21.4968 75.9919 21.8065L73.5966 22.4228C72.6441 22.6678 72.2697 23.826 72.897 24.5869L74.4745 26.5007C75.2674 27.4626 74.4433 28.8971 73.2181 28.6878L70.7804 28.2716C69.8112 28.1061 69.0004 29.0111 69.2655 29.9626L69.9322 32.3558C70.2673 33.5587 68.934 34.5323 67.8993 33.8403L65.8409 32.4635C65.0224 31.916 63.9155 32.4113 63.7726 33.389L63.4132 35.8478C63.2325 37.0837 61.6205 37.4281 60.9554 36.3729L59.632 34.2736C59.1058 33.4389 57.8942 33.4389 57.368 34.2736L56.0446 36.3729C55.3795 37.4281 53.7675 37.0837 53.5868 35.8478L53.2274 33.389C53.0845 32.4113 51.9776 31.916 51.1592 32.4635L49.1007 33.8403C48.066 34.5323 46.7327 33.5587 47.0678 32.3558L47.7345 29.9626C47.9996 29.0111 47.1888 28.1061 46.2196 28.2716L43.7819 28.6878C42.5567 28.8971 41.7326 27.4625 42.5255 26.5007L44.103 24.5869C44.7303 23.826 44.3559 22.6678 43.4034 22.4228L41.008 21.8065C39.8041 21.4968 39.6318 19.8494 40.7454 19.2948L42.9609 18.1914C43.8419 17.7527 43.9685 16.5416 43.1976 15.9284L41.2587 14.3861C40.2842 13.6109 40.7934 12.0356 42.0352 11.9842L44.5057 11.8819C45.488 11.8413 46.0938 10.7867 45.6377 9.91129L44.4905 7.70974C43.9139 6.60317 45.0167 5.37221 46.1719 5.8329L48.4702 6.74946C49.384 7.11389 50.3642 6.39809 50.3018 5.41194L50.1447 2.93176C50.0658 1.68514 51.5713 1.01141 52.4402 1.90453L54.1689 3.68141C54.8563 4.38792 56.0414 4.13473 56.3834 3.20831L57.2436 0.878334Z" fill="#FEAE13"/>
<path d="M20.3355 55V20.44H28.2715L28.6555 23.8321C30.1915 22.5947 31.9622 21.6134 33.9675 20.888C36.0155 20.1627 38.2342 19.8 40.6235 19.8C44.2502 19.8 47.0875 20.9094 49.1355 23.128C51.2262 25.3467 52.2715 28.3974 52.2715 32.28V55H43.6315V32.792C43.6315 30.5734 43.0982 28.9734 42.0315 27.992C41.0075 27.0107 39.4715 26.52 37.4235 26.52C35.8448 26.52 34.2662 26.8614 32.6875 27.544C31.1515 28.2267 29.9142 29.08 28.9755 30.104V55H20.3355Z" fill="black"/>
<path d="M8.392 54.9999C5.61866 54.9999 3.656 54.4239 2.504 53.2719C1.39466 52.1199 0.839996 50.3066 0.839996 47.8319V20.4399H9.48V45.5919C9.48 47.3839 10.3547 48.2799 12.104 48.2799H14.28V54.9999H8.392Z" fill="black"/>
</svg>
